HIERARCHY
ROOT hip
{
  OFFSET 0 0 0
  CHANNELS 6 Xposition Yposition Zposition Zrotation Yrotation Xrotation
  JOINT abdomen
  {
    OFFSET 0 20.6881 -0.73152
    CHANNELS 3 Zrotation Xrotation Yrotation
    JOINT chest
    {
      OFFSET 0 11.7043 -0.48768
      CHANNELS 3 Zrotation Xrotation Yrotation
      JOINT neck
      {
        OFFSET 0 22.1894 -2.19456
        CHANNELS 3 Zrotation Xrotation Yrotation
        JOINT head
        {
          OFFSET -0.24384 7.07133 1.2192
          CHANNELS 3 Zrotation Xrotation Yrotation
          JOINT leftEye
          {
            OFFSET 4.14528 8.04674 8.04672
            CHANNELS 3 Zrotation Xrotation Yrotation
            End Site
            {
              OFFSET 1 0 0
            }
          }
          JOINT rightEye
          {
            OFFSET -3.6576 8.04674 8.04672
            CHANNELS 3 Zrotation Xrotation Yrotation
            End Site
            {
              OFFSET 1 0 0
            }
          }
        }
      }
      JOINT rCollar
      {
        OFFSET -2.68224 19.2634 -4.8768
        CHANNELS 3 Zrotation Xrotation Yrotation
        JOINT rShldr
        {
          OFFSET -8.77824 -1.95073 1.46304
          CHANNELS 3 Zrotation Xrotation Yrotation
          JOINT rForeArm
          {
            OFFSET -28.1742 -1.7115 0.48768
            CHANNELS 3 Zrotation Xrotation Yrotation
            JOINT rHand
            {
              OFFSET -22.5879 0.773209 7.07136
              CHANNELS 3 Zrotation Xrotation Yrotation
              JOINT rThumb1
              {
                OFFSET -1.2192 -0.487915 3.41376
                CHANNELS 3 Zrotation Xrotation Yrotation
                JOINT rThumb2
                {
                  OFFSET -3.37035 -0.52449 3.41376
                  CHANNELS 3 Zrotation Xrotation Yrotation
                  End Site
                  {
                    OFFSET -1.78271 -1.18214 1.43049
                  }
                }
              }
              JOINT rIndex1
              {
                OFFSET -7.75947 0.938293 5.60832
                CHANNELS 3 Zrotation Xrotation Yrotation
                JOINT rIndex2
                {
                  OFFSET -2.54057 -0.884171 1.56538
                  CHANNELS 3 Zrotation Xrotation Yrotation
                  End Site
                  {
                    OFFSET -1.62519 -0.234802 1.16502
                  }
                }
              }
              JOINT rMid1
              {
                OFFSET -8.24714 1.18213 3.41376
                CHANNELS 3 Zrotation Xrotation Yrotation
                JOINT rMid2
                {
                  OFFSET -3.10165 -0.590103 1.0647
                  CHANNELS 3 Zrotation Xrotation Yrotation
                  End Site
                  {
                    OFFSET -2.48547 -0.328903 0.83742
                  }
                }
              }
              JOINT rRing1
              {
                OFFSET -8.82822 0.546677 1.51678
                CHANNELS 3 Zrotation Xrotation Yrotation
                JOINT rRing2
                {
                  OFFSET -2.60934 -0.819778 -0.0198488
                  CHANNELS 3 Zrotation Xrotation Yrotation
                  End Site
                  {
                    OFFSET -2.33842 -0.294052 0.168128
                  }
                }
              }
              JOINT rPinky1
              {
                OFFSET -8.27202 -0.0477905 -0.4584
                CHANNELS 3 Zrotation Xrotation Yrotation
                JOINT rPinky2
                {
                  OFFSET -1.82734 -0.647385 -0.700984
                  CHANNELS 3 Zrotation Xrotation Yrotation
                  End Site
                  {
                    OFFSET -1.69225 -0.51767 -0.607171
                  }
                }
              }
            }
          }
        }
      }
      JOINT lCollar
      {
        OFFSET 2.68224 19.2634 -4.8768
        CHANNELS 3 Zrotation Xrotation Yrotation
        JOINT lShldr
        {
          OFFSET 8.77824 -1.95073 1.46304
          CHANNELS 3 Zrotation Xrotation Yrotation
          JOINT lForeArm
          {
            OFFSET 28.1742 -1.7115 0.48768
            CHANNELS 3 Zrotation Xrotation Yrotation
            JOINT lHand
            {
              OFFSET 22.5879 0.773209 7.07136
              CHANNELS 3 Zrotation Xrotation Yrotation
              JOINT lThumb1
              {
                OFFSET 1.2192 -0.487915 3.41376
                CHANNELS 3 Zrotation Xrotation Yrotation
                JOINT lThumb2
                {
                  OFFSET 3.37035 -0.52449 3.41376
                  CHANNELS 3 Zrotation Xrotation Yrotation
                  End Site
                  {
                    OFFSET 1.78271 -1.18214 1.43049
                  }
                }
              }
              JOINT lIndex1
              {
                OFFSET 7.75947 0.938293 5.60832
                CHANNELS 3 Zrotation Xrotation Yrotation
                JOINT lIndex2
                {
                  OFFSET 2.54057 -0.884171 1.56538
                  CHANNELS 3 Zrotation Xrotation Yrotation
                  End Site
                  {
                    OFFSET 1.62519 -0.234802 1.16502
                  }
                }
              }
              JOINT lMid1
              {
                OFFSET 8.24714 1.18213 3.41376
                CHANNELS 3 Zrotation Xrotation Yrotation
                JOINT lMid2
                {
                  OFFSET 3.10165 -0.590103 1.0647
                  CHANNELS 3 Zrotation Xrotation Yrotation
                  End Site
                  {
                    OFFSET 2.48547 -0.328903 0.83742
                  }
                }
              }
              JOINT lRing1
              {
                OFFSET 8.82822 0.546677 1.51678
                CHANNELS 3 Zrotation Xrotation Yrotation
                JOINT lRing2
                {
                  OFFSET 2.60934 -0.819778 -0.0198488
                  CHANNELS 3 Zrotation Xrotation Yrotation
                  End Site
                  {
                    OFFSET 2.33842 -0.294052 0.168128
                  }
                }
              }
              JOINT lPinky1
              {
                OFFSET 8.27202 -0.0477905 -0.4584
                CHANNELS 3 Zrotation Xrotation Yrotation
                JOINT lPinky2
                {
                  OFFSET 1.82734 -0.647385 -0.700984
                  CHANNELS 3 Zrotation Xrotation Yrotation
                  End Site
                  {
                    OFFSET 1.69225 -0.51767 -0.607171
                  }
                }
              }
            }
          }
        }
      }
    }
  }
  JOINT rButtock
  {
    OFFSET -8.77824 4.35084 1.2192
    CHANNELS 3 Zrotation Xrotation Yrotation
    JOINT rThigh
    {
      OFFSET 0 -1.70687 -2.19456
      CHANNELS 3 Zrotation Xrotation Yrotation
      JOINT rShin
      {
        OFFSET 0 -36.8199 0.73152
        CHANNELS 3 Zrotation Xrotation Yrotation
        JOINT rFoot
        {
          OFFSET 0.73152 -45.1104 -5.12064
          CHANNELS 3 Zrotation Xrotation Yrotation
          End Site
          {
            OFFSET -1.1221 -3.69964 12.103
          }
        }
      }
    }
  }
  JOINT lButtock
  {
    OFFSET 8.77824 4.35084 1.2192
    CHANNELS 3 Zrotation Xrotation Yrotation
    JOINT lThigh
    {
      OFFSET 0 -1.70687 -2.19456
      CHANNELS 3 Zrotation Xrotation Yrotation
      JOINT lShin
      {
        OFFSET 0 -36.8199 0.73152
        CHANNELS 3 Zrotation Xrotation Yrotation
        JOINT lFoot
        {
          OFFSET -0.73152 -45.1104 -5.12064
          CHANNELS 3 Zrotation Xrotation Yrotation
          End Site
          {
            OFFSET 1.1221 -3.69964 12.103
          }
        }
      }
    }
  }
}
MOTION
Frames:	7
Frame Time:	0.00833333
-127.274 110.927 -0.326588 -305.805 -97.0157 253.164 5.05276 3.82372 0.389697 -1.64952 -5.45372 0.0530382 -17.0339 27.4684 1.98889 14.146 8.19713 -5.34019 -0.0 0.0 0.0 -0.0 0.0 0.0 -1.52699e-13 -3.75659e-12 1.68967e-15 22.4367 -64.2471 80.682 -19.1899 -12.0257 36.7476 -0.326558 -16.0457 -2.31657 -8.4646e-09 1.67296e-09 3.11355e-09 -1.46582e-08 2.88994e-09 5.29774e-09 -8.4646e-09 1.67296e-09 3.11354e-09 7.73091 5.47488 0.417314 -8.4646e-09 1.67296e-09 3.11354e-09 2.90554 0.965183 0.102902 -8.4646e-09 1.67296e-09 3.11355e-09 10.2786 0.731801 0.0259123 -8.4646e-09 1.67296e-09 3.11355e-09 2.22167 -0.733487 -0.20892 -1.52645e-13 -3.7566e-12 1.49089e-15 -49.8193 -53.3381 -125.046 14.3083 -7.20594 -26.1765 0.762328 23.9933 -3.58638 7.4414e-09 2.00072e-09 3.34085e-09 1.29171e-08 3.49286e-09 5.61451e-09 7.44139e-09 2.00073e-09 3.34086e-09 -7.73091 5.47488 -0.417314 7.4414e-09 2.00073e-09 3.34085e-09 -2.90554 0.965183 -0.102902 7.44139e-09 2.00072e-09 3.34085e-09 -10.2786 0.731801 -0.0259123 7.44139e-09 2.00072e-09 3.34084e-09 -2.22167 -0.733487 0.20892 -2.03217e-16 0.0 -3.88251e-19 13.298 -26.5607 10.576 -0.290372 36.6151 0.563849 -0.653668 3.10674 -7.52012 2.03217e-16 0.0 3.88251e-19 -0.974022 -29.6386 -6.88424 0.351262 41.2984 -0.644551 0.0905001 7.66162 5.81029
-127.463 110.83 -0.729959 -308.298 -98.6156 255.075 5.45335 3.7411 0.424828 -1.7475 -5.51387 0.0581272 -17.2018 27.7094 1.97367 14.2436 7.90709 -5.45357 -0.0 0.0 0.0 -0.0 0.0 0.0 -2.15049e-13 -4.26034e-12 5.05794e-14 22.5151 -64.4578 81.0926 -18.9575 -11.7613 36.1852 -0.3168 -15.8164 -2.28163 -7.10264e-09 1.46679e-09 2.37493e-09 -1.22975e-08 2.53308e-09 4.03279e-09 -7.10264e-09 1.46679e-09 2.37492e-09 7.73091 5.47488 0.417314 -7.10264e-09 1.46679e-09 2.37492e-09 2.90554 0.965183 0.102902 -7.10263e-09 1.46679e-09 2.37493e-09 10.2786 0.731801 0.0259123 -7.10264e-09 1.46679e-09 2.37493e-09 2.22167 -0.733487 -0.20892 -2.15004e-13 -4.26035e-12 5.03523e-14 -49.8746 -53.6042 -125.227 14.0925 -7.01324 -25.7754 0.775859 24.1311 -3.61118 5.79191e-09 1.4013e-09 1.90099e-09 1.00422e-08 2.44518e-09 3.16118e-09 5.79191e-09 1.40131e-09 1.901e-09 -7.73091 5.47488 -0.417314 5.79191e-09 1.4013e-09 1.90099e-09 -2.90554 0.965183 -0.102902 5.7919e-09 1.4013e-09 1.90099e-09 -10.2786 0.731801 -0.0259123 5.7919e-09 1.4013e-09 1.90098e-09 -2.22167 -0.733487 0.20892 -2.03217e-16 0.0 -3.88251e-19 13.4525 -26.3168 10.5402 -0.288612 36.5594 0.562942 -0.646662 3.10508 -7.33162 2.03217e-16 0.0 3.88251e-19 -0.7191 -29.4372 -6.72024 0.356779 41.5007 -0.653568 0.126965 7.10074 6.22527
-127.611 110.567 -0.861636 -308.182 -99.0487 254.855 6.07596 3.83466 0.393818 -1.87876 -5.68611 0.044544 -17.3773 27.8334 1.94387 14.2874 7.89384 -5.61875 -0.0 0.0 0.0 -0.0 0.0 0.0 -2.67113e-13 -4.53337e-12 1.04812e-13 23.552 -64.453 82.7583 -18.6031 -11.3596 35.3592 -0.285545 -15.0702 -2.16836 -4.29841e-09 9.96426e-10 9.78928e-10 -7.43818e-09 1.71948e-09 1.64535e-09 -4.29842e-09 9.9643e-10 9.78919e-10 7.73091 5.47488 0.417314 -4.29841e-09 9.96427e-10 9.78921e-10 2.90554 0.965183 0.102902 -4.29841e-09 9.96426e-10 9.7892e-10 10.2786 0.731801 0.0259123 -4.29842e-09 9.96429e-10 9.78921e-10 2.22167 -0.733487 -0.20892 -2.67088e-13 -4.53337e-12 1.04548e-13 -48.7775 -54.4482 -123.927 14.1145 -7.02984 -25.8216 0.735662 23.556 -3.51395 2.6811e-09 3.54073e-10 -4.75511e-10 4.62566e-09 6.1504e-10 -8.7889e-10 2.6811e-09 3.54076e-10 -4.75505e-10 -7.73091 5.47488 -0.417314 2.6811e-09 3.54074e-10 -4.75516e-10 -2.90554 0.965183 -0.102902 2.68109e-09 3.54074e-10 -4.75511e-10 -10.2786 0.731801 -0.0259123 2.6811e-09 3.54071e-10 -4.75522e-10 -2.22167 -0.733487 0.20892 -2.03217e-16 0.0 -3.88251e-19 13.8049 -25.9105 10.5885 -0.286578 36.5036 0.562824 -0.663124 2.95449 -7.24231 2.03217e-16 0.0 3.88251e-19 -0.279444 -29.1217 -6.51007 0.361767 41.6687 -0.661231 0.169774 6.58886 6.58088
-127.684 110.281 -0.965822 -308.7 -99.5389 255.499 6.74336 4.00988 0.347175 -2.00783 -5.89867 0.0273261 -17.5174 27.942 1.90663 14.2861 7.95305 -5.80163 -0.0 0.0 0.0 -0.0 0.0 0.0 -3.07684e-13 -4.96681e-12 1.37699e-13 24.7837 -64.3366 84.6932 -18.2021 -10.9113 34.458 -0.252155 -14.1856 -2.03554 -1.34698e-09 4.04835e-10 -4.91137e-10 -2.32352e-09 6.96044e-10 -8.68473e-10 -1.34698e-09 4.04838e-10 -4.91147e-10 7.73091 5.47488 0.417314 -1.34698e-09 4.04834e-10 -4.91144e-10 2.90554 0.965183 0.102902 -1.34697e-09 4.04833e-10 -4.91149e-10 10.2786 0.731801 0.0259123 -1.34698e-09 4.04837e-10 -4.91148e-10 2.22167 -0.733487 -0.20892 -3.07681e-13 -4.96681e-12 1.37406e-13 -47.3414 -55.3618 -122.202 14.1778 -7.08894 -25.9326 0.687621 22.8518 -3.39592 -4.69784e-10 -6.54521e-10 -2.76973e-09 -8.58827e-10 -1.14809e-09 -4.7757e-09 -4.69785e-10 -6.5452e-10 -2.76972e-09 -7.73091 5.47488 -0.417314 -4.69785e-10 -6.5452e-10 -2.76973e-09 -2.90554 0.965183 -0.102902 -4.69791e-10 -6.5452e-10 -2.76973e-09 -10.2786 0.731801 -0.0259123 -4.69785e-10 -6.54521e-10 -2.76974e-09 -2.22167 -0.733487 0.20892 -2.03217e-16 0.0 -3.88251e-19 14.2126 -25.4551 10.6133 -0.285229 36.4833 0.563154 -0.678162 2.83074 -7.19564 2.03217e-16 0.0 3.88251e-19 0.24665 -28.7387 -6.23756 0.366031 41.806 -0.667742 0.213401 6.15347 6.84473
-127.688 109.899 -0.790217 -307.672 -98.4348 255.028 7.27787 4.17227 0.335436 -2.09901 -6.07978 0.0215324 -17.579 28.1369 1.86904 14.2465 7.88063 -5.96785 -0.0 0.0 0.0 -0.0 0.0 0.0 -3.35554e-13 -5.95183e-12 1.22551e-13 25.4777 -64.2606 85.9486 -17.8417 -10.5174 33.6659 -0.230313 -13.5413 -1.93973 4.56623e-10 -1.65029e-10 -1.45194e-09 8.0319e-10 -2.90296e-10 -2.51255e-09 4.56625e-10 -1.65027e-10 -1.45195e-09 7.73091 5.47488 0.417314 4.56625e-10 -1.65032e-10 -1.45194e-09 2.90554 0.965183 0.102902 4.56632e-10 -1.65032e-10 -1.45195e-09 10.2786 0.731801 0.0259123 4.56618e-10 -1.65028e-10 -1.45195e-09 2.22167 -0.733487 -0.20892 -3.35566e-13 -5.95182e-12 1.22253e-13 -46.547 -55.9026 -121.28 14.0852 -7.02336 -25.7256 0.670529 22.603 -3.3543 -2.2395e-09 -1.13804e-09 -3.96274e-09 -3.93742e-09 -1.99475e-09 -6.79924e-09 -2.2395e-09 -1.13804e-09 -3.96273e-09 -7.73091 5.47488 -0.417314 -2.2395e-09 -1.13804e-09 -3.96274e-09 -2.90554 0.965183 -0.102902 -2.23951e-09 -1.13804e-09 -3.96274e-09 -10.2786 0.731801 -0.0259123 -2.2395e-09 -1.13804e-09 -3.96275e-09 -2.22167 -0.733487 0.20892 -2.03217e-16 0.0 -3.88251e-19 14.5366 -25.0639 10.5079 -0.285527 36.5342 0.563593 -0.667404 2.90961 -7.13491 2.03217e-16 0.0 3.88251e-19 0.760838 -28.3344 -5.88639 0.369381 41.9163 -0.673309 0.251415 5.8219 6.98442
-127.629 109.557 -0.705025 -306.331 -97.6539 253.849 7.66363 4.34558 0.390051 -2.13483 -6.22852 0.0373947 -17.5323 28.4452 1.8295 14.1616 7.64573 -6.1168 -0.0 0.0 0.0 -0.0 0.0 0.0 -3.56254e-13 -8.33517e-12 1.9656e-14 25.2866 -64.2732 86.092 -17.5661 -10.2235 33.0649 -0.223006 -13.3022 -1.90442 2.48004e-10 -7.64268e-10 -1.64893e-09 4.46521e-10 -1.3285e-09 -2.85382e-09 2.48008e-10 -7.64268e-10 -1.64894e-09 7.73091 5.47488 0.417314 2.48007e-10 -7.64272e-10 -1.64894e-09 2.90554 0.965183 0.102902 2.48012e-10 -7.64273e-10 -1.64895e-09 10.2786 0.731801 0.0259123 2.47997e-10 -7.64269e-10 -1.64895e-09 2.22167 -0.733487 -0.20892 -3.56269e-13 -8.33517e-12 1.93947e-14 -46.9414 -55.8773 -121.802 13.7263 -6.74619 -24.985 0.702053 23.1203 -3.43933 -1.64739e-09 -7.33144e-10 -3.37876e-09 -2.90381e-09 -1.29159e-09 -5.80255e-09 -1.64739e-09 -7.33145e-10 -3.37875e-09 -7.73091 5.47488 -0.417314 -1.64739e-09 -7.33145e-10 -3.37877e-09 -2.90554 0.965183 -0.102902 -1.64739e-09 -7.33144e-10 -3.37876e-09 -10.2786 0.731801 -0.0259123 -1.64738e-09 -7.33142e-10 -3.37877e-09 -2.22167 -0.733487 0.20892 -2.03217e-16 0.0 -3.88251e-19 14.8247 -24.7433 10.3103 -0.28824 36.6824 0.563356 -0.624252 3.28068 -7.1556 2.03217e-16 0.0 3.88251e-19 1.31529 -27.8579 -5.4255 0.370391 41.9407 -0.676 0.276899 5.63537 6.96298
-127.535 109.29 -0.961932 -308.388 -98.4026 255.562 7.98436 4.56388 0.478123 -2.13683 -6.3771 0.0648247 -17.4061 28.8125 1.78528 14.0299 7.34942 -6.26396 -0.0 0.0 0.0 -0.0 0.0 0.0 -3.68479e-13 -1.16608e-11 -1.45886e-13 24.65 -64.3007 85.6878 -17.3269 -9.97385 32.5442 -0.221578 -13.2451 -1.89605 -1.10913e-09 -1.43939e-09 -1.42623e-09 -1.89804e-09 -2.49867e-09 -2.47935e-09 -1.10912e-09 -1.43939e-09 -1.42624e-09 7.73091 5.47488 0.417314 -1.10913e-09 -1.43939e-09 -1.42624e-09 2.90554 0.965183 0.102902 -1.10912e-09 -1.43939e-09 -1.42624e-09 10.2786 0.731801 0.0259123 -1.10914e-09 -1.43939e-09 -1.42624e-09 2.22167 -0.733487 -0.20892 -3.6849e-13 -1.16607e-11 -1.46082e-13 -47.9141 -55.5407 -123.022 13.2139 -6.35355 -23.9548 0.762649 24.0402 -3.59307 3.48004e-10 2.22851e-10 -1.69591e-09 5.73779e-10 3.7274e-10 -2.93684e-09 3.48003e-10 2.22849e-10 -1.6959e-09 -7.73091 5.47488 -0.417314 3.48005e-10 2.22849e-10 -1.69592e-09 -2.90554 0.965183 -0.102902 3.48002e-10 2.2285e-10 -1.69592e-09 -10.2786 0.731801 -0.0259123 3.4801e-10 2.22853e-10 -1.69593e-09 -2.22167 -0.733487 0.20892 -2.03217e-16 0.0 -3.88251e-19 15.1248 -24.4402 10.056 -0.292681 36.9035 0.562859 -0.560312 3.83578 -7.25167 2.03217e-16 0.0 3.88251e-19 1.92933 -27.3037 -4.87591 0.36958 41.8972 -0.676337 0.291198 5.56765 6.80725
